<svg height="300" viewBox="0 0 180 180" width="300" xmlns="http://www.w3.org/2000/svg" xmlns:xlink="http://www.w3.org/1999/xlink" version="1.1" xmlns:svgjs="http://svgjs.dev/svgjs"><rect width="180" height="180" x="0" y="0" shape="true" transform="matrix(1,0,0,1,0,0)" fill="#ffffff12"/><g transform="matrix(1,0,0,1,0,0)"><g id="Layer_2" data-name="Layer 2"><g id="_041.office_building" data-name="041.office_building"><path id="background" d="m147.8 176.92a543.45 543.45 0 0 1 -115.6 0 32.77 32.77 0 0 1 -29.12-29.12 543.45 543.45 0 0 1 0-115.6 32.77 32.77 0 0 1 29.12-29.12 543.45 543.45 0 0 1 115.6 0 32.77 32.77 0 0 1 29.12 29.12 543.45 543.45 0 0 1 0 115.6 32.77 32.77 0 0 1 -29.12 29.12z" fill="url(#linear-gradient)" data-original-color="linear-gradient" stroke="none"/><path id="icon" d="m137.27 60.78h-40.82v-23.63a2.15 2.15 0 0 0 -2.15-2.15h-51.57a2.14 2.14 0 0 0 -2.14 2.15v105.7a2.14 2.14 0 0 0 2.14 2.15h94.54a2.14 2.14 0 0 0 2.14-2.15v-79.92a2.14 2.14 0 0 0 -2.14-2.15zm-55.86 12.89h4.29a2.15 2.15 0 0 1 2.15 2.15v4.3a2.15 2.15 0 0 1 -2.15 2.15h-4.29a2.15 2.15 0 0 1 -2.15-2.15v-4.3a2.15 2.15 0 0 1 2.15-2.15zm-2.15-8.59v-4.3a2.15 2.15 0 0 1 2.15-2.15h4.29a2.15 2.15 0 0 1 2.15 2.15v4.3a2.15 2.15 0 0 1 -2.15 2.15h-4.29a2.15 2.15 0 0 1 -2.15-2.15zm2.15 23.63h4.29a2.15 2.15 0 0 1 2.15 2.15v4.3a2.14 2.14 0 0 1 -2.15 2.14h-4.29a2.14 2.14 0 0 1 -2.15-2.14v-4.3a2.15 2.15 0 0 1 2.15-2.15zm0 15h4.29a2.15 2.15 0 0 1 2.15 2.15v4.3a2.14 2.14 0 0 1 -2.15 2.14h-4.29a2.14 2.14 0 0 1 -2.15-2.14v-4.3a2.15 2.15 0 0 1 2.15-2.11zm6.44-53.71a2.15 2.15 0 0 1 -2.15 2.15h-4.29a2.15 2.15 0 0 1 -2.15-2.15v-4.3a2.15 2.15 0 0 1 2.15-2.15h4.29a2.15 2.15 0 0 1 2.15 2.15zm-21.48 23.67h4.29a2.15 2.15 0 0 1 2.15 2.15v4.3a2.15 2.15 0 0 1 -2.15 2.15h-4.29a2.15 2.15 0 0 1 -2.15-2.15v-4.3a2.15 2.15 0 0 1 2.15-2.15zm-2.15-8.59v-4.3a2.15 2.15 0 0 1 2.15-2.15h4.29a2.15 2.15 0 0 1 2.15 2.15v4.3a2.15 2.15 0 0 1 -2.15 2.15h-4.29a2.15 2.15 0 0 1 -2.15-2.15zm2.15 23.63h4.29a2.15 2.15 0 0 1 2.15 2.15v4.3a2.14 2.14 0 0 1 -2.15 2.14h-4.29a2.14 2.14 0 0 1 -2.15-2.14v-4.3a2.15 2.15 0 0 1 2.15-2.15zm0 15h4.29a2.15 2.15 0 0 1 2.15 2.15v4.3a2.14 2.14 0 0 1 -2.15 2.14h-4.29a2.14 2.14 0 0 1 -2.15-2.14v-4.3a2.15 2.15 0 0 1 2.15-2.11zm6.44-53.71a2.15 2.15 0 0 1 -2.15 2.15h-4.29a2.15 2.15 0 0 1 -2.15-2.15v-4.3a2.15 2.15 0 0 1 2.15-2.15h4.29a2.15 2.15 0 0 1 2.15 2.15zm-17.18 62.3h-4.3a2.14 2.14 0 0 1 -2.15-2.14v-4.3a2.15 2.15 0 0 1 2.15-2.15h4.3a2.14 2.14 0 0 1 2.14 2.15v4.3a2.14 2.14 0 0 1 -2.14 2.18zm-4.3-38.67h4.3a2.14 2.14 0 0 1 2.14 2.15v4.3a2.15 2.15 0 0 1 -2.14 2.15h-4.3a2.15 2.15 0 0 1 -2.15-2.15v-4.3a2.15 2.15 0 0 1 2.15-2.11zm-2.15-8.59v-4.3a2.15 2.15 0 0 1 2.15-2.15h4.3a2.15 2.15 0 0 1 2.14 2.15v4.3a2.15 2.15 0 0 1 -2.14 2.15h-4.3a2.15 2.15 0 0 1 -2.15-2.11zm2.15 23.63h4.3a2.14 2.14 0 0 1 2.14 2.15v4.3a2.14 2.14 0 0 1 -2.14 2.14h-4.3a2.14 2.14 0 0 1 -2.15-2.14v-4.3a2.15 2.15 0 0 1 2.15-2.11zm6.44-38.67a2.14 2.14 0 0 1 -2.14 2.15h-4.3a2.15 2.15 0 0 1 -2.15-2.15v-4.3a2.15 2.15 0 0 1 2.15-2.15h4.3a2.15 2.15 0 0 1 2.14 2.15zm17.23 90.7h-12.93v-17.18h12.93zm31.15-52h4.3a2.15 2.15 0 0 1 2.15 2.15v4.3a2.14 2.14 0 0 1 -2.15 2.14h-4.3a2.15 2.15 0 0 1 -2.15-2.13v-4.3a2.15 2.15 0 0 1 2.11-2.15zm-2.15-8.58v-4.3a2.15 2.15 0 0 1 2.15-2.15h4.3a2.15 2.15 0 0 1 2.15 2.15v4.3a2.15 2.15 0 0 1 -2.15 2.15h-4.3a2.16 2.16 0 0 1 -2.15-2.15zm2.15 23.63h4.3a2.15 2.15 0 0 1 2.15 2.15v4.3a2.14 2.14 0 0 1 -2.15 2.14h-4.3a2.15 2.15 0 0 1 -2.15-2.14v-4.3a2.15 2.15 0 0 1 2.11-2.15zm15 0h4.3a2.15 2.15 0 0 1 2.15 2.15v4.3a2.14 2.14 0 0 1 -2.15 2.14h-4.3a2.15 2.15 0 0 1 -2.15-2.14v-4.3a2.15 2.15 0 0 1 2.15-2.15zm-2.15-8.59v-4.3a2.15 2.15 0 0 1 2.15-2.15h4.3a2.15 2.15 0 0 1 2.15 2.15v4.3a2.14 2.14 0 0 1 -2.15 2.14h-4.3a2.15 2.15 0 0 1 -2.15-2.14zm8.6-15a2.15 2.15 0 0 1 -2.15 2.15h-4.3a2.16 2.16 0 0 1 -2.15-2.19v-4.3a2.15 2.15 0 0 1 2.15-2.15h4.3a2.15 2.15 0 0 1 2.15 2.15zm7.52 60.58h-38.67v-17.22h38.67z" fill="#f37b21ff" data-original-color="#ffffffff" stroke="none"/></g></g></g><defs><linearGradient id="linear-gradient"><stop stop-color="#9fe30000" offset="0"/><stop stop-color="#08630100" offset="1"/></linearGradient></defs></svg>